<svg width="1200" height="800" viewBox="0 0 1200 800" fill="none" xmlns="http://www.w3.org/2000/svg">
  <rect width="1200" height="800" fill="#08111F"/>
  <rect x="86" y="86" width="1028" height="628" rx="36" fill="#0A0A0A" stroke="#1E3A8A" stroke-width="2"/>
  <rect x="150" y="152" width="210" height="108" rx="24" fill="#2563EB"/>
  <rect x="490" y="152" width="210" height="108" rx="24" fill="#1D4ED8"/>
  <rect x="830" y="152" width="210" height="108" rx="24" fill="#10B981"/>
  <rect x="150" y="446" width="210" height="108" rx="24" fill="white" fill-opacity="0.12"/>
  <rect x="490" y="446" width="210" height="108" rx="24" fill="white" fill-opacity="0.12"/>
  <rect x="830" y="446" width="210" height="108" rx="24" fill="white" fill-opacity="0.12"/>
  <path d="M360 206H490" stroke="white" stroke-width="12" stroke-linecap="round"/>
  <path d="M700 206H830" stroke="white" stroke-width="12" stroke-linecap="round"/>
  <path d="M255 260V446" stroke="white" stroke-width="12" stroke-linecap="round"/>
  <path d="M595 260V446" stroke="white" stroke-width="12" stroke-linecap="round"/>
  <path d="M935 260V446" stroke="white" stroke-width="12" stroke-linecap="round"/>
  <circle cx="255" cy="352" r="18" fill="#10B981"/>
  <circle cx="595" cy="352" r="18" fill="#2563EB"/>
  <circle cx="935" cy="352" r="18" fill="white"/>
</svg>
