<svg width="64" height="64" viewBox="0 0 24 24" fill="none" xmlns="http://www.w3.org/2000/svg">
  <path d="M21.8055 12.2273C21.8055 11.5182 21.7418 10.8364 21.6236 10.1818H12V14.1364H17.4991C17.2627 15.4091 16.5445 16.4864 15.4627 17.1955V19.7591H18.7636C20.6945 17.9818 21.8055 15.3591 21.8055 12.2273Z" fill="#4285F4"/>
  <path d="M12 22C14.7591 22 17.0727 21.0864 18.7636 19.7591L15.4627 17.1955C14.5491 17.8045 13.3818 18.1636 12 18.1636C9.33636 18.1636 7.07727 16.3636 6.27273 13.9409H2.86364V16.5864C4.54545 19.9273 8 22 12 22Z" fill="#34A853"/>
  <path d="M6.27273 13.9409C6.06818 13.3318 5.95455 12.6818 5.95455 12C5.95455 11.3182 6.06818 10.6682 6.27273 10.0591V7.41364H2.86364C2.17273 8.79091 1.77273 10.3409 1.77273 12C1.77273 13.6591 2.17273 15.2091 2.86364 16.5864L6.27273 13.9409Z" fill="#FBBC05"/>
  <path d="M12 5.83636C13.5091 5.83636 14.8636 6.35455 15.9273 7.37273L18.8364 4.46364C17.0682 2.80455 14.7545 1.99999 12 1.99999C8 1.99999 4.54545 4.07273 2.86364 7.41363L6.27273 10.0591C7.07727 7.63636 9.33636 5.83636 12 5.83636Z" fill="#EA4335"/>
</svg>
